<svg xmlns="http://www.w3.org/2000/svg" viewBox="0 0 725.75 288.92"><defs><style>.cls-1{fill:#ffffff;}</style></defs><g id="Capa_2" data-name="Capa 2"><g id="Capa_1-2" data-name="Capa 1"><path class="cls-1" d="M0,288.92H226.56L114.26,132.59l39.81-90.28h0V0H0V288.91H0ZM42.31,42.31h65.52l-42,95.19,1,.44-.56.4,77.77,108.27H42.31Z"/><polygon class="cls-1" points="209.14 138.34 209.16 138.36 317.32 288.92 369.42 288.92 262.66 140.31 344.63 42.31 344.64 42.31 344.64 42.31 344.64 42.31 344.64 42.3 344.64 0.01 190.58 0.01 190.58 42.31 289.47 42.31 209.14 138.34"/><path class="cls-1" d="M423.45,288.92V171.39l84.43,117.53H560L453.22,140.31l82-98h0V0H381.14V288.92Zm0-246.61H480L423.45,110Z"/><path class="cls-1" d="M725.74,42.3V0H571.68V288.92H614v-113L725.74,42.31h0ZM614,110V42.31h56.59Z"/></g></g></svg>